<svg xmlns="http://www.w3.org/2000/svg" xmlns:xlink="http://www.w3.org/1999/xlink" viewBox="0 0 385 95">
  <defs>
    <style>
      .cls-1 {
        clip-path: url(#clip-logo);
      }

      .cls-2 {
        fill: url(#linear-gradient);
      }

      .cls-3 {
        fill: url(#radial-gradient);
      }

      .cls-4 {
        fill: url(#radial-gradient-2);
      }

      .cls-5 {
        fill: url(#radial-gradient-3);
      }

      .cls-6 {
        fill: #616161;
      }
    </style>
    <linearGradient id="linear-gradient" x1="0.406" y1="0.469" x2="0.981" y2="1.102" gradientUnits="objectBoundingBox">
      <stop offset="0" stop-color="#fc0"/>
      <stop offset="1" stop-color="#c19a00"/>
    </linearGradient>
    <radialGradient id="radial-gradient" cx="78.252" cy="37.75" r="14.177" gradientTransform="translate(1.138 1.218) scale(0.9 0.81)" gradientUnits="userSpaceOnUse">
      <stop offset="0" stop-color="#ffffba"/>
      <stop offset="1" stop-color="#ff0"/>
    </radialGradient>
    <radialGradient id="radial-gradient-2" cx="28.275" cy="124.92" r="15.207" gradientTransform="translate(1.532 1.751) scale(0.866 0.749)" xlink:href="#radial-gradient"/>
    <radialGradient id="radial-gradient-3" cx="124.583" cy="119.15" r="15.207" gradientTransform="translate(1.036 0.304) scale(0.866 0.749)" xlink:href="#radial-gradient"/>
    <clipPath id="clip-logo">
      <rect width="385" height="95"/>
    </clipPath>
  </defs>
  <g id="logo" class="cls-1">
    <g id="triforce" transform="translate(-98.027 -10.412)">
      <path id="Path_5" data-name="Path 5" class="cls-2" d="M128.646,110l18.646,32.295H110Z" transform="translate(18.646 -87)"/>
      <path id="use2398" class="cls-2" d="M18.646,32.295,37.292,0H0Z" transform="translate(184.583 87.738) rotate(180)"/>
      <path id="Back-Tri" class="cls-2" d="M18.646,32.295,37.292,0H0Z" transform="translate(147.292 87.738) rotate(180)"/>
      <path id="Power" class="cls-3" d="M66.875,54.308H92.392L79.633,31.344Z" transform="translate(67.73 -2.232)"/>
      <path id="Courage" class="cls-4" d="M16.875,140.725H43.2L30.038,117.938Z" transform="translate(135.881 -55.726)"/>
      <path id="Wisdom" class="cls-5" d="M116.875,140.725H143.2l-13.163-22.787Z" transform="translate(-1.311 -55.726)"/>
    </g>
    <path id="Path_6" data-name="Path 6" class="cls-6" d="M27.941-4.29A9.962,9.962,0,0,1,23.3-.73,18.735,18.735,0,0,1,16.374.449a13.438,13.438,0,0,1-7.1-1.875,12.5,12.5,0,0,1-4.8-5.334A18.424,18.424,0,0,1,2.74-14.779v-2.853q0-7.39,3.448-11.455t9.692-4.065a12.409,12.409,0,0,1,8.243,2.617,11.4,11.4,0,0,1,3.818,7.423H23.629q-1.213-6.514-7.727-6.514a7.634,7.634,0,0,0-6.57,3.046Q7.1-23.534,7.075-17.756v2.675q0,5.507,2.516,8.756A8.154,8.154,0,0,0,16.4-3.077a15.032,15.032,0,0,0,4.245-.538,6.565,6.565,0,0,0,3.01-1.815v-7.328H16.082v-3.526H27.941ZM49.481,0A8.729,8.729,0,0,1,48.9-2.561,9.271,9.271,0,0,1,41.979.449a8.579,8.579,0,0,1-5.9-2.033,6.577,6.577,0,0,1-2.3-5.155,6.87,6.87,0,0,1,2.886-5.9q2.886-2.1,8.12-2.1H48.83v-1.909a4.667,4.667,0,0,0-1.3-3.47,5.236,5.236,0,0,0-3.841-1.292,6.059,6.059,0,0,0-3.729,1.123,3.309,3.309,0,0,0-1.5,2.718H34.275a5.735,5.735,0,0,1,1.292-3.515,8.815,8.815,0,0,1,3.5-2.684,11.788,11.788,0,0,1,4.863-.988,9.608,9.608,0,0,1,6.581,2.1,7.576,7.576,0,0,1,2.471,5.784V-5.683a13.675,13.675,0,0,0,.854,5.323V0Zm-6.9-3.167a7.3,7.3,0,0,0,3.706-1.011A6.114,6.114,0,0,0,48.83-6.806v-4.986H45.573q-7.637,0-7.637,4.47a3.783,3.783,0,0,0,1.3,3.055A5.007,5.007,0,0,0,42.586-3.167ZM63.407-24.3l.112,2.7a8.975,8.975,0,0,1,7.21-3.145q5.1,0,6.94,3.908a9.206,9.206,0,0,1,3.156-2.83,9.321,9.321,0,0,1,4.593-1.078q8,0,8.131,8.468V0H89.395V-16.037a5.58,5.58,0,0,0-1.19-3.9q-1.19-1.292-4-1.292a5.51,5.51,0,0,0-3.841,1.381,5.6,5.6,0,0,0-1.774,3.717V0H74.413V-15.925q0-5.3-5.188-5.3a5.56,5.56,0,0,0-5.593,3.481V0H59.477V-24.3ZM109.9.449A10.619,10.619,0,0,1,101.86-2.8a12.046,12.046,0,0,1-3.1-8.681v-.764a14.584,14.584,0,0,1,1.381-6.458,10.776,10.776,0,0,1,3.863-4.447,9.713,9.713,0,0,1,5.379-1.606,9.1,9.1,0,0,1,7.367,3.122q2.628,3.122,2.628,8.939v1.729H102.916a8.639,8.639,0,0,0,2.1,5.806,6.6,6.6,0,0,0,5.11,2.212,7.237,7.237,0,0,0,3.729-.9,9.368,9.368,0,0,0,2.673-2.381l2.538,1.977Q116.011.449,109.9.449Zm-.517-21.787a5.543,5.543,0,0,0-4.223,1.831,8.9,8.9,0,0,0-2.111,5.132h12.174v-.314a7.914,7.914,0,0,0-1.707-4.908A5.218,5.218,0,0,0,109.385-21.338Zm39.6,17.048a9.962,9.962,0,0,1-4.638,3.56A18.735,18.735,0,0,1,137.416.449a13.438,13.438,0,0,1-7.1-1.875,12.5,12.5,0,0,1-4.8-5.334,18.424,18.424,0,0,1-1.741-8.019v-2.853q0-7.39,3.448-11.455t9.692-4.065a12.409,12.409,0,0,1,8.243,2.617,11.4,11.4,0,0,1,3.818,7.423h-4.312q-1.213-6.514-7.727-6.514a7.634,7.634,0,0,0-6.57,3.046q-2.235,3.046-2.257,8.823v2.675q0,5.507,2.516,8.756a8.154,8.154,0,0,0,6.806,3.248,15.032,15.032,0,0,0,4.245-.538,6.565,6.565,0,0,0,3.01-1.815v-7.328h-7.569v-3.526h11.859ZM170.523-2.4Q168.1.449,163.4.449a7.555,7.555,0,0,1-5.918-2.257q-2.033-2.257-2.055-6.682V-24.3h4.155V-8.6q0,5.525,4.492,5.525,4.762,0,6.334-3.549V-24.3h4.155V0h-3.953ZM185.393,0h-4.155V-24.3h4.155ZM180.9-30.749a2.48,2.48,0,0,1,.618-1.707,2.319,2.319,0,0,1,1.831-.7,2.355,2.355,0,0,1,1.842.7,2.454,2.454,0,0,1,.629,1.707,2.373,2.373,0,0,1-.629,1.685,2.4,2.4,0,0,1-1.842.674,2.361,2.361,0,0,1-1.831-.674A2.4,2.4,0,0,1,180.9-30.749Zm10.13,18.4a14.237,14.237,0,0,1,2.65-9,8.381,8.381,0,0,1,6.94-3.4,8.429,8.429,0,0,1,6.761,2.92V-34.5h4.155V0h-3.818l-.2-2.605a8.462,8.462,0,0,1-6.94,3.055,8.3,8.3,0,0,1-6.884-3.459,14.4,14.4,0,0,1-2.662-9.029Zm4.155.472a10.779,10.779,0,0,0,1.707,6.469,5.519,5.519,0,0,0,4.717,2.336,6.062,6.062,0,0,0,5.772-3.549V-17.789a6.108,6.108,0,0,0-5.728-3.437,5.545,5.545,0,0,0-4.762,2.358Q195.186-16.509,195.186-11.882ZM228.068.449A10.619,10.619,0,0,1,220.027-2.8a12.046,12.046,0,0,1-3.1-8.681v-.764a14.584,14.584,0,0,1,1.381-6.458,10.776,10.776,0,0,1,3.863-4.447,9.713,9.713,0,0,1,5.379-1.606,9.1,9.1,0,0,1,7.367,3.122q2.628,3.122,2.628,8.939v1.729H221.083a8.639,8.639,0,0,0,2.1,5.806,6.6,6.6,0,0,0,5.11,2.212,7.237,7.237,0,0,0,3.729-.9,9.368,9.368,0,0,0,2.673-2.381l2.538,1.977Q234.178.449,228.068.449Zm-.517-21.787a5.543,5.543,0,0,0-4.223,1.831,8.9,8.9,0,0,0-2.111,5.132h12.174v-.314a7.914,7.914,0,0,0-1.707-4.908A5.218,5.218,0,0,0,227.552-21.338Zm18.71,17.946h14.218V0H241.186V-3.055l13.409-17.812H241.388V-24.3h18.418v2.942Z" transform="translate(103 63)"/>
  </g>
</svg>
